<svg width="1692" height="746" viewBox="0 0 1692 746" fill="none" xmlns="http://www.w3.org/2000/svg">
<path d="M671.343 356.328L20.6567 356.328" stroke="white" stroke-width="31.4545" stroke-linecap="round"/>
<path d="M655.851 482.851L33.567 482.851" stroke="white" stroke-width="31.4545" stroke-linecap="round"/>
<path d="M290.955 686.758L53.1908 512.901C32.9399 498.093 20.9697 474.512 20.9697 449.424L20.9697 262.121" stroke="white" stroke-width="41.9394"/>
<path d="M290.954 684.136L171.02 508.939C162.065 495.856 157.272 480.373 157.272 464.519L157.272 262.121" stroke="white" stroke-width="41.9394"/>
<path d="M283.091 715.591L283.091 262.121" stroke="white" stroke-width="52.4242"/>
<path d="M403.667 678.894L529.509 510.925C539.703 497.319 545.212 480.776 545.212 463.775L545.212 262.121" stroke="white" stroke-width="41.9394"/>
<path d="M403.667 689.379L639.503 512.93C659.347 498.082 671.031 474.749 671.031 449.966L671.031 262.121" stroke="white" stroke-width="41.9394"/>
<path d="M408.909 715.591L408.909 262.121" stroke="white" stroke-width="52.4242"/>
<path d="M0 147C0 135.402 9.40202 126 21 126C32.598 126 42 135.402 42 147V214.923C42 216.693 41.7764 218.455 41.3344 220.169C35.9158 241.175 6.08416 241.175 0.665603 220.169C0.223639 218.455 0 216.693 0 214.923V147Z" fill="white"/>
<path d="M136.303 146.788C136.303 135.207 145.691 125.818 157.272 125.818C168.854 125.818 178.242 135.207 178.242 146.788V214.749C178.242 216.514 178.019 218.271 177.579 219.98C172.174 240.965 142.371 240.965 136.966 219.98C136.525 218.271 136.303 216.514 136.303 214.749V146.788Z" fill="white"/>
<path d="M262.121 62.9091H304.06V154.497L283.091 235.909L262.121 154.497V62.9091Z" fill="white"/>
<path d="M387.939 62.9091H429.879V154.497L408.909 235.909L387.939 154.497V62.9091Z" fill="white"/>
<path d="M429.879 125.818L387.94 125.818L387.94 107.47C387.94 84.3072 369.163 65.5303 346 65.5303C322.838 65.5303 304.061 84.3072 304.061 107.47L304.061 125.818L262.121 125.818L262.121 34.2299C315.888 12.2883 376.112 12.2883 429.879 34.2299L429.879 125.818Z" fill="white"/>
<path d="M524.242 146.788C524.242 135.207 533.631 125.818 545.212 125.818C556.793 125.818 566.182 135.207 566.182 146.788V214.749C566.182 216.514 565.959 218.271 565.519 219.98C560.113 240.965 530.31 240.965 524.905 219.98C524.465 218.271 524.242 216.514 524.242 214.749V146.788Z" fill="white"/>
<path d="M650.061 146.788C650.061 135.207 659.449 125.818 671.03 125.818C682.611 125.818 692 135.207 692 146.788V214.749C692 216.514 691.777 218.271 691.337 219.98C685.932 240.965 656.129 240.965 650.723 219.98C650.283 218.271 650.061 216.514 650.061 214.749V146.788Z" fill="white"/>
<path d="M881.008 135.599C894.821 135.599 906.893 137.115 917.225 140.147C927.557 143.179 935.867 146.38 942.156 149.749C948.445 153.118 952.264 155.364 953.611 156.487L929.354 197.084C927.557 195.736 924.469 193.771 920.089 191.188C915.821 188.605 910.712 186.303 904.76 184.282C898.92 182.26 892.799 181.249 886.398 181.249C877.751 181.249 870.732 182.822 865.342 185.966C860.063 188.998 857.424 193.547 857.424 199.611C857.424 203.766 858.828 207.528 861.636 210.897C864.555 214.154 868.935 217.298 874.775 220.331C880.727 223.251 888.251 226.451 897.348 229.933C905.658 232.965 913.463 236.558 920.763 240.714C928.062 244.869 934.464 249.81 939.966 255.537C945.582 261.153 950.017 267.666 953.274 275.078C956.531 282.49 958.159 290.913 958.159 300.346C958.159 311.576 955.857 321.347 951.253 329.657C946.648 337.855 940.36 344.649 932.386 350.04C924.525 355.43 915.541 359.417 905.433 362C895.439 364.695 885.051 366.043 874.27 366.043C858.996 366.043 845.296 364.302 833.167 360.821C821.151 357.339 811.436 353.577 804.025 349.534C796.613 345.492 792.177 342.796 790.717 341.449L815.816 299.167C817.164 300.178 819.747 301.806 823.565 304.052C827.496 306.298 832.269 308.656 837.884 311.127C843.499 313.485 849.451 315.507 855.74 317.191C862.141 318.876 868.43 319.718 874.607 319.718C884.938 319.718 892.687 317.753 897.853 313.822C903.019 309.779 905.602 304.501 905.602 297.988C905.602 293.159 903.974 288.835 900.717 285.017C897.46 281.199 892.575 277.605 886.061 274.236C879.548 270.754 871.406 267.105 861.636 263.286C851.865 259.356 842.713 254.583 834.178 248.968C825.755 243.353 818.905 236.334 813.626 227.911C808.348 219.488 805.709 209.044 805.709 196.579C805.709 184.113 809.19 173.332 816.153 164.236C823.228 155.027 832.493 147.952 843.948 143.011C855.515 138.069 867.868 135.599 881.008 135.599ZM1085.03 219.657C1094.69 219.657 1104.12 221.622 1113.33 225.553C1122.54 229.483 1130.12 235.716 1136.07 244.251C1142.02 252.674 1145 263.792 1145 277.605V362H1093.79V286.027C1093.79 276.145 1091.54 268.733 1087.05 263.792C1082.67 258.738 1076.66 256.211 1069.03 256.211C1063.97 256.211 1059.14 257.559 1054.54 260.254C1049.93 262.837 1046.17 266.543 1043.25 271.372C1040.44 276.089 1039.04 281.535 1039.04 287.712V362H987.662V130.208H1039.04V244.083C1040.28 240.377 1043.03 236.671 1047.29 232.965C1051.67 229.146 1057.12 226.002 1063.63 223.531C1070.26 220.948 1077.39 219.657 1085.03 219.657ZM1215.99 303.715C1216.32 308.656 1217.9 313.036 1220.7 316.854C1223.51 320.673 1227.39 323.705 1232.33 325.951C1237.38 328.085 1243.33 329.152 1250.18 329.152C1256.7 329.152 1262.54 328.478 1267.7 327.13C1272.98 325.783 1277.53 324.098 1281.35 322.077C1285.28 320.055 1288.31 317.977 1290.44 315.844L1310.32 347.513C1307.51 350.545 1303.53 353.521 1298.36 356.441C1293.31 359.249 1286.63 361.551 1278.32 363.348C1270.01 365.144 1259.51 366.043 1246.81 366.043C1231.54 366.043 1217.95 363.179 1206.05 357.452C1194.15 351.724 1184.77 343.302 1177.92 332.184C1171.07 321.066 1167.64 307.477 1167.64 291.418C1167.64 277.942 1170.56 265.813 1176.4 255.032C1182.35 244.139 1190.94 235.548 1202.17 229.259C1213.4 222.857 1226.94 219.657 1242.77 219.657C1257.82 219.657 1270.85 222.408 1281.85 227.911C1292.97 233.414 1301.51 241.612 1307.46 252.505C1313.52 263.286 1316.55 276.763 1316.55 292.934C1316.55 293.833 1316.5 295.629 1316.39 298.325C1316.39 301.02 1316.27 302.817 1316.05 303.715H1215.99ZM1268.38 276.931C1268.26 273.337 1267.31 269.8 1265.51 266.318C1263.72 262.725 1261.02 259.805 1257.43 257.559C1253.83 255.201 1249.23 254.021 1243.61 254.021C1238 254.021 1233.23 255.144 1229.3 257.39C1225.48 259.524 1222.56 262.332 1220.54 265.813C1218.51 269.294 1217.39 273 1217.17 276.931H1268.38ZM1533.2 219.657C1543.65 219.657 1552.85 221.847 1560.83 226.227C1568.8 230.494 1575.03 237.12 1579.53 246.104C1584.13 255.088 1586.43 266.655 1586.43 280.805V362H1536.07V288.554C1536.07 278.896 1534.61 271.091 1531.69 265.139C1528.77 259.187 1522.98 256.211 1514.33 256.211C1509.17 256.211 1504.62 257.559 1500.69 260.254C1496.76 262.949 1493.73 266.712 1491.59 271.541C1489.46 276.257 1488.39 281.928 1488.39 288.554V362H1441.39V288.554C1441.39 278.896 1439.77 271.091 1436.51 265.139C1433.36 259.187 1427.75 256.211 1419.66 256.211C1414.5 256.211 1409.95 257.559 1406.02 260.254C1402.09 262.837 1399.06 266.543 1396.92 271.372C1394.9 276.089 1393.89 281.816 1393.89 288.554V362H1343.02V223.7H1393.89V243.409C1395.24 239.927 1398.16 236.39 1402.65 232.796C1407.25 229.09 1412.93 226.002 1419.66 223.531C1426.4 220.948 1433.53 219.657 1441.06 219.657C1449.26 219.657 1456.11 220.892 1461.61 223.363C1467.11 225.721 1471.6 228.922 1475.09 232.965C1478.68 237.008 1481.54 241.387 1483.68 246.104C1485.25 242.061 1488.34 238.018 1492.94 233.975C1497.66 229.82 1503.5 226.395 1510.46 223.7C1517.54 221.004 1525.12 219.657 1533.2 219.657ZM881.008 445.599C894.821 445.599 906.893 447.115 917.225 450.147C927.557 453.179 935.867 456.38 942.156 459.749C948.445 463.118 952.264 465.364 953.611 466.487L929.354 507.084C927.557 505.736 924.469 503.771 920.089 501.188C915.821 498.605 910.712 496.303 904.76 494.282C898.92 492.26 892.799 491.249 886.398 491.249C877.751 491.249 870.732 492.822 865.342 495.966C860.063 498.998 857.424 503.547 857.424 509.611C857.424 513.766 858.828 517.528 861.636 520.897C864.555 524.154 868.935 527.298 874.775 530.331C880.727 533.251 888.251 536.451 897.348 539.933C905.658 542.965 913.463 546.558 920.763 550.714C928.062 554.869 934.464 559.81 939.966 565.537C945.582 571.153 950.017 577.666 953.274 585.078C956.531 592.49 958.159 600.913 958.159 610.346C958.159 621.576 955.857 631.347 951.253 639.657C946.648 647.855 940.36 654.649 932.386 660.04C924.525 665.43 915.541 669.417 905.433 672C895.439 674.695 885.051 676.043 874.27 676.043C858.996 676.043 845.296 674.302 833.167 670.821C821.151 667.339 811.436 663.577 804.025 659.534C796.613 655.492 792.177 652.796 790.717 651.449L815.816 609.167C817.164 610.178 819.747 611.806 823.565 614.052C827.496 616.298 832.269 618.656 837.884 621.127C843.499 623.485 849.451 625.507 855.74 627.191C862.141 628.876 868.43 629.718 874.607 629.718C884.938 629.718 892.687 627.753 897.853 623.822C903.019 619.779 905.602 614.501 905.602 607.988C905.602 603.159 903.974 598.835 900.717 595.017C897.46 591.199 892.575 587.605 886.061 584.236C879.548 580.754 871.406 577.105 861.636 573.286C851.865 569.356 842.713 564.583 834.178 558.968C825.755 553.353 818.905 546.334 813.626 537.911C808.348 529.488 805.709 519.044 805.709 506.579C805.709 494.113 809.19 483.332 816.153 474.236C823.228 465.027 832.493 457.952 843.948 453.011C855.515 448.069 867.868 445.599 881.008 445.599ZM1085.03 529.657C1094.69 529.657 1104.12 531.622 1113.33 535.553C1122.54 539.483 1130.12 545.716 1136.07 554.251C1142.02 562.674 1145 573.792 1145 587.605V672H1093.79V596.027C1093.79 586.145 1091.54 578.733 1087.05 573.792C1082.67 568.738 1076.66 566.211 1069.03 566.211C1063.97 566.211 1059.14 567.559 1054.54 570.254C1049.93 572.837 1046.17 576.543 1043.25 581.372C1040.44 586.089 1039.04 591.535 1039.04 597.712V672H987.662V440.208H1039.04V554.083C1040.28 550.377 1043.03 546.671 1047.29 542.965C1051.67 539.146 1057.12 536.002 1063.63 533.531C1070.26 530.948 1077.39 529.657 1085.03 529.657ZM1215.99 613.715C1216.32 618.656 1217.9 623.036 1220.7 626.854C1223.51 630.673 1227.39 633.705 1232.33 635.951C1237.38 638.085 1243.33 639.152 1250.18 639.152C1256.7 639.152 1262.54 638.478 1267.7 637.13C1272.98 635.783 1277.53 634.098 1281.35 632.077C1285.28 630.055 1288.31 627.977 1290.44 625.844L1310.32 657.513C1307.51 660.545 1303.53 663.521 1298.36 666.441C1293.31 669.249 1286.63 671.551 1278.32 673.348C1270.01 675.144 1259.51 676.043 1246.81 676.043C1231.54 676.043 1217.95 673.179 1206.05 667.452C1194.15 661.724 1184.77 653.302 1177.92 642.184C1171.07 631.066 1167.64 617.477 1167.64 601.418C1167.64 587.942 1170.56 575.813 1176.4 565.032C1182.35 554.139 1190.94 545.548 1202.17 539.259C1213.4 532.857 1226.94 529.657 1242.77 529.657C1257.82 529.657 1270.85 532.408 1281.85 537.911C1292.97 543.414 1301.51 551.612 1307.46 562.505C1313.52 573.286 1316.55 586.763 1316.55 602.934C1316.55 603.833 1316.5 605.629 1316.39 608.325C1316.39 611.02 1316.27 612.817 1316.05 613.715H1215.99ZM1268.38 586.931C1268.26 583.337 1267.31 579.8 1265.51 576.318C1263.72 572.725 1261.02 569.805 1257.43 567.559C1253.83 565.201 1249.23 564.021 1243.61 564.021C1238 564.021 1233.23 565.144 1229.3 567.39C1225.48 569.524 1222.56 572.332 1220.54 575.813C1218.51 579.294 1217.39 583 1217.17 586.931H1268.38ZM1405.01 529.657C1414.1 529.657 1422.42 530.443 1429.94 532.015C1437.46 533.475 1443.75 535.16 1448.81 537.069C1453.97 538.978 1457.29 540.55 1458.75 541.785L1442.07 571.939C1439.93 570.366 1435.95 568.345 1430.11 565.874C1424.38 563.404 1417.98 562.168 1410.9 562.168C1405.51 562.168 1400.97 563.011 1397.26 564.695C1393.55 566.267 1391.7 568.794 1391.7 572.276C1391.7 575.757 1393.72 578.564 1397.76 580.698C1401.92 582.72 1407.87 584.517 1415.62 586.089C1422.36 587.436 1429.21 589.57 1436.17 592.49C1443.14 595.41 1448.92 599.733 1453.52 605.461C1458.24 611.076 1460.6 618.6 1460.6 628.034C1460.6 637.692 1458.52 645.665 1454.37 651.954C1450.21 658.243 1444.71 663.128 1437.86 666.609C1431.01 670.091 1423.59 672.505 1415.62 673.853C1407.65 675.313 1399.9 676.043 1392.37 676.043C1381.82 676.043 1372.61 675.088 1364.75 673.179C1357 671.27 1350.71 669.08 1345.88 666.609C1341.05 664.139 1337.68 662.174 1335.77 660.714L1352.28 627.023C1355.2 629.494 1359.98 632.301 1366.6 635.446C1373.23 638.478 1380.25 639.994 1387.66 639.994C1394.85 639.994 1400.4 638.927 1404.33 636.793C1408.27 634.659 1410.23 631.852 1410.23 628.371C1410.23 625.563 1409.28 623.317 1407.37 621.632C1405.46 619.948 1402.76 618.488 1399.28 617.253C1395.8 616.017 1391.59 614.894 1386.65 613.884C1382.15 612.985 1377.38 611.581 1372.33 609.672C1367.27 607.763 1362.5 605.18 1358.01 601.923C1353.52 598.554 1349.87 594.343 1347.06 589.289C1344.25 584.236 1342.85 578.115 1342.85 570.928C1342.85 561.719 1345.83 554.083 1351.78 548.018C1357.73 541.954 1365.42 537.406 1374.86 534.374C1384.29 531.229 1394.34 529.657 1405.01 529.657ZM1584.14 529.657C1593.8 529.657 1603.23 531.622 1612.44 535.553C1621.65 539.483 1629.23 545.716 1635.18 554.251C1641.13 562.674 1644.11 573.792 1644.11 587.605V672H1592.9V596.027C1592.9 586.145 1590.65 578.733 1586.16 573.792C1581.78 568.738 1575.77 566.211 1568.13 566.211C1563.08 566.211 1558.25 567.559 1553.65 570.254C1549.04 572.837 1545.28 576.543 1542.36 581.372C1539.55 586.089 1538.15 591.535 1538.15 597.712V672H1486.77V440.208H1538.15V554.083C1539.39 550.377 1542.14 546.671 1546.4 542.965C1550.78 539.146 1556.23 536.002 1562.74 533.531C1569.37 530.948 1576.5 529.657 1584.14 529.657Z" fill="white"/>
</svg>
